<svg width="50" height="50" viewBox="0 0 50 50" fill="none" xmlns="http://www.w3.org/2000/svg">
<path d="M35.9375 11.7227H14.0625C12.5425 11.7227 11.25 12.8602 11.25 14.3477V40.4727L11.2575 40.6152C11.279 40.8036 11.3431 40.9847 11.445 41.1447C11.5468 41.3047 11.6837 41.4395 11.8454 41.5387C12.007 41.638 12.1891 41.6991 12.3779 41.7176C12.5667 41.736 12.7572 41.7112 12.935 41.6452L25 37.1627L37.065 41.6452C37.2541 41.7153 37.4573 41.7387 37.6574 41.7133C37.8575 41.6879 38.0484 41.6145 38.214 41.4993C38.3795 41.3841 38.5147 41.2306 38.6081 41.0518C38.7014 40.873 38.7501 40.6743 38.75 40.4727V14.3477C38.75 12.8602 37.4575 11.7227 35.9375 11.7227ZM35.9375 14.2227L36.0325 14.2302C36.1763 14.2527 36.25 14.3227 36.25 14.3477V38.6752L25.435 34.6602L25.2638 34.6102C25.0304 34.5596 24.7875 34.577 24.5638 34.6602L13.75 38.6752V14.3502C13.75 14.3189 13.8575 14.2252 14.0625 14.2252H35.9375V14.2227Z" fill="#F9B42B"/>
<path d="M32.5 26.8477C32.7863 26.8473 33.062 26.9562 33.2708 27.1521C33.4797 27.348 33.606 27.6161 33.624 27.9019C33.642 28.1877 33.5504 28.4695 33.3678 28.6901C33.1852 28.9106 32.9254 29.0533 32.6412 29.0889L32.5 29.0977H17.5C17.2137 29.098 16.938 28.9891 16.7292 28.7932C16.5203 28.5973 16.394 28.3292 16.376 28.0434C16.358 27.7577 16.4496 27.4758 16.6322 27.2552C16.8148 27.0347 17.0746 26.892 17.3587 26.8564L17.5 26.8477H32.5ZM25.625 21.2227C25.9113 21.2223 26.187 21.3312 26.3958 21.5271C26.6047 21.723 26.731 21.9911 26.749 22.2769C26.767 22.5627 26.6754 22.8445 26.4928 23.0651C26.3102 23.2856 26.0504 23.4283 25.7662 23.4639L25.625 23.4727H18.125C17.8387 23.473 17.563 23.3641 17.3542 23.1682C17.1453 22.9723 17.019 22.7042 17.001 22.4184C16.983 22.1327 17.0746 21.8508 17.2572 21.6302C17.4398 21.4097 17.6996 21.267 17.9837 21.2314L18.125 21.2227H25.625Z" fill="#F9B42B"/>
<path d="M17.9524 8.88774C18.2266 8.88529 18.4921 8.98301 18.6993 9.16255C18.9064 9.34208 19.0409 9.59106 19.0774 9.86274L19.0874 10.004L19.1399 16.029C19.1427 16.3153 19.0361 16.5919 18.842 16.8024C18.6479 17.0129 18.3808 17.1414 18.0952 17.1618C17.8095 17.1822 17.5269 17.093 17.3048 16.9122C17.0827 16.7314 16.9379 16.4728 16.8999 16.189L16.8899 16.0477L16.8374 10.0227C16.8361 9.875 16.8639 9.72845 16.9192 9.59145C16.9746 9.45446 17.0563 9.3297 17.1599 9.2243C17.2634 9.11891 17.3867 9.03494 17.5227 8.97719C17.6587 8.91944 17.8047 8.88905 17.9524 8.88774ZM32.7037 8.88774C32.9778 8.88529 33.2434 8.98301 33.4505 9.16255C33.6577 9.34208 33.7922 9.59106 33.8287 9.86274L33.8387 10.004L33.8912 16.029C33.8939 16.3153 33.7874 16.5919 33.5932 16.8024C33.3991 17.0129 33.132 17.1414 32.8464 17.1618C32.5608 17.1822 32.2781 17.093 32.0561 16.9122C31.834 16.7314 31.6892 16.4728 31.6512 16.189L31.6412 16.0477L31.5887 10.0227C31.5874 9.875 31.6152 9.72845 31.6705 9.59145C31.7258 9.45446 31.8076 9.3297 31.9111 9.2243C32.0147 9.11891 32.1379 9.03494 32.2739 8.97719C32.4099 8.91944 32.556 8.88905 32.7037 8.88774Z" fill="#F9B42B"/>
</svg>
