<svg width="50" height="50" viewBox="0 0 50 50" fill="none" xmlns="http://www.w3.org/2000/svg">
<path d="M45.5209 44.0623L30.9376 29.479C30.8441 29.3794 30.7311 29.2999 30.6057 29.2456C30.4803 29.1913 30.3451 29.1633 30.2084 29.1633C30.0718 29.1633 29.9365 29.1913 29.8111 29.2456C29.6857 29.2999 29.5728 29.3794 29.4792 29.479L26.0417 32.8957L16.6667 23.5207V18.7498H22.9167V20.8332C22.9167 21.1094 23.0265 21.3744 23.2218 21.5697C23.4172 21.7651 23.6821 21.8748 23.9584 21.8748H36.4584C36.6505 21.8726 36.8386 21.8194 37.0033 21.7205C37.1681 21.6217 37.3036 21.4808 37.3959 21.3123C37.4778 21.1391 37.5114 20.947 37.4931 20.7563C37.4747 20.5656 37.4052 20.3834 37.2917 20.229L33.5834 15.104L37.2917 9.979C37.4223 9.8348 37.5108 9.65752 37.5475 9.46649C37.5843 9.27546 37.5679 9.07801 37.5001 8.89567C37.3997 8.71096 37.2478 8.55943 37.0629 8.45955C36.8779 8.35967 36.6679 8.31576 36.4584 8.33317H29.1667V5.20817C29.1667 4.9319 29.057 4.66695 28.8617 4.4716C28.6663 4.27625 28.4013 4.1665 28.1251 4.1665H15.6251C15.3488 4.1665 15.0839 4.27625 14.8885 4.4716C14.6932 4.66695 14.5834 4.9319 14.5834 5.20817V23.5207L5.08341 33.0207C4.50102 33.6087 4.17198 34.4014 4.16675 35.229V42.7082C4.16675 43.537 4.49599 44.3318 5.08204 44.9179C5.66809 45.5039 6.46295 45.8332 7.29175 45.8332H44.7917C44.9974 45.8321 45.1981 45.7703 45.3687 45.6553C45.5392 45.5404 45.6719 45.3776 45.7501 45.1873C45.8352 44.9996 45.8588 44.7897 45.8177 44.5877C45.7765 44.3857 45.6727 44.2019 45.5209 44.0623ZM34.4167 10.4165L31.4584 14.5832C31.3266 14.757 31.2553 14.9692 31.2553 15.1873C31.2553 15.4055 31.3266 15.6177 31.4584 15.7915L34.4167 19.9582H25.0001V18.7498H28.1251C28.4013 18.7498 28.6663 18.6401 28.8617 18.4447C29.057 18.2494 29.1667 17.9844 29.1667 17.7082V10.4165H34.4167ZM27.0834 16.6665H16.6667V6.24984H27.0834V16.6665ZM7.29175 43.7498C7.01548 43.7498 6.75053 43.6401 6.55518 43.4447C6.35983 43.2494 6.25008 42.9844 6.25008 42.7082V35.229C6.24842 35.0924 6.27536 34.9569 6.32918 34.8314C6.383 34.7058 6.4625 34.5928 6.56258 34.4998L15.6251 25.4373L25.3126 35.104L33.9376 43.7498H7.29175ZM36.8959 43.7498L27.5209 34.3748L30.2084 31.6873L42.2709 43.7498H36.8959Z" fill="#F9B42B"/>
</svg>
