<svg width="50" height="50" viewBox="0 0 50 50" fill="none" xmlns="http://www.w3.org/2000/svg">
<g clip-path="url(#clip0_2151_177)">
<path d="M26.5964 17.1772V20.4886C27.9551 20.97 29.0304 22.0444 29.511 23.4031H32.8223C32.1878 20.2754 29.7242 17.8118 26.5964 17.1772Z" fill="#F9B42B"/>
<path d="M29.5095 26.5961C28.8525 28.4553 27.0851 29.7893 24.9999 29.7893C22.3545 29.7893 20.2102 27.645 20.2102 24.9996C20.2102 22.9153 21.5442 21.1479 23.4034 20.49V17.1797C19.76 17.9196 17.0171 21.1377 17.0171 24.9997C17.0171 29.4087 20.591 32.9826 24.9999 32.9826C28.8612 32.9826 32.0799 30.2397 32.82 26.5963L29.5095 26.5961Z" fill="#F9B42B"/>
<path d="M49.5543 24.4813C49.1536 24.0135 39.5686 13.0259 24.9998 13.0259C10.4311 13.0259 0.846225 24.0134 0.445507 24.4813L0 24.9999L0.445507 25.5188C0.846225 25.9866 10.4313 36.9743 25 36.9743C39.5687 36.9743 49.1538 25.9866 49.5545 25.5188L50 24.9999L49.5543 24.4813ZM35.3776 24.9999C35.3776 30.722 30.7221 35.3777 24.9998 35.3777C19.2775 35.3777 14.6222 30.722 14.6222 24.9999C14.6222 19.2778 19.2779 14.6221 24.9998 14.6221C30.7218 14.6221 35.3776 19.2778 35.3776 24.9999ZM2.13932 24.9992C3.76467 23.3109 9.39329 17.968 17.4991 15.68C14.7746 17.8769 13.0255 21.2361 13.0255 25.0001C13.0255 28.7615 14.7721 32.1192 17.4926 34.316C9.39976 32.0248 3.76552 26.6859 2.13932 24.9992ZM32.5006 34.32C35.225 32.1231 36.9742 28.7639 36.9742 24.9999C36.9742 21.2383 35.2276 17.8808 32.507 15.6839C40.6009 17.975 46.2343 23.3139 47.8605 25.0008C46.2352 26.6891 40.6064 32.0321 32.5006 34.32Z" fill="#F9B42B"/>
<path d="M24.9997 9.83241C31.7348 9.83241 38.3007 11.9256 44.5154 16.0542L45.3982 14.7243C39.0087 10.4799 31.9543 8.23584 24.9996 8.23584C19.4491 8.23584 13.9552 9.61443 8.66821 12.3326L9.39863 13.7527C14.4569 11.1512 19.7064 9.83241 24.9997 9.83241Z" fill="#F9B42B"/>
<path d="M7.83424 14.6079L7.04149 13.2222C6.18572 13.7114 5.36436 14.2176 4.60107 14.7246L5.48391 16.0544C6.21859 15.5674 7.00879 15.0805 7.83424 14.6079Z" fill="#F9B42B"/>
<path d="M24.9998 40.1671C18.2647 40.1671 11.6988 38.0739 5.48416 33.9453L4.60132 35.2752C10.9908 39.5196 18.0452 41.7637 25 41.7637C30.5513 41.7637 36.045 40.3842 41.3313 37.666L40.6009 36.2459C35.5436 38.8483 30.2941 40.1671 24.9998 40.1671Z" fill="#F9B42B"/>
<path d="M42.1655 35.3918L42.9583 36.7776C43.814 36.2883 44.6354 35.7822 45.3987 35.2752L44.5158 33.9453C43.7812 34.4324 42.991 34.9194 42.1655 35.3918Z" fill="#F9B42B"/>
</g>
<defs>
<clipPath id="clip0_2151_177">
<rect width="50" height="50" fill="white"/>
</clipPath>
</defs>
</svg>
